<svg xmlns="http://www.w3.org/2000/svg" viewBox="0 0 500 500"><g id="freepik--background-complete--inject-34"><g><g><g><path d="M443.92039,319.2628h-180.7461c-3.2324,0-5.86229-2.6298-5.86229-5.8623V50.1271c0-3.2324,2.62989-5.8618,5.86229-5.8618h180.7461c3.2324,0,5.8623,2.6294,5.8623,5.8618V313.4005c0,3.2325-2.6299,5.8623-5.8623,5.8623ZM263.17429,44.5153c-3.0947,0-5.61229,2.5176-5.61229,5.6118V313.4005c0,3.0948,2.51759,5.6123,5.61229,5.6123h180.7461c3.0947,0,5.6123-2.5175,5.6123-5.6123V50.1271c0-3.0942-2.5176-5.6118-5.6123-5.6118h-180.7461Z" style="fill:#e0e0e0;"></path><path d="M235.49269,319.2628H54.7461c-3.2324,0-5.8618-2.6298-5.8618-5.8623V50.1271c0-3.2324,2.6294-5.8618,5.8618-5.8618H235.49269c3.2324,0,5.86231,2.6294,5.86231,5.8618V313.4005c0,3.2325-2.62991,5.8623-5.86231,5.8623ZM54.7461,44.5153c-3.0942,0-5.6118,2.5176-5.6118,5.6118V313.4005c0,3.0948,2.5176,5.6123,5.6118,5.6123H235.49269c3.0947,0,5.61231-2.5175,5.61231-5.6123V50.1271c0-3.0942-2.51761-5.6118-5.61231-5.6118H54.7461Z" style="fill:#e0e0e0;"></path></g><rect x="0" y="380.3322" width="500" height=".25" style="fill:#e0e0e0;"></rect></g><rect x="51.6724" y="394.5967" width="16.06" height=".25" style="fill:#e0e0e0;"></rect><rect x="170.3524" y="391.8867" width="53.53" height=".25" style="fill:#e0e0e0;"></rect><rect x="68.7324" y="403.8867" width="36.25" height=".25" style="fill:#e0e0e0;"></rect><rect x="378.35239" y="391.7567" width="43.19" height=".25" style="fill:#e0e0e0;"></rect><rect x="430.45239" y="391.7567" width="6.33" height=".25" style="fill:#e0e0e0;"></rect><rect x="316.21239" y="397.9867" width="53.89" height=".25" style="fill:#e0e0e0;"></rect></g><g><g><rect x="77.3118" y="57.8893" width="64.7766" height="122.1183" style="fill:#e6e6e6;"></rect><rect x="62.8192" y="57.8893" width="76.0905" height="122.1183" style="fill:#f0f0f0;"></rect><rect x="74.3844" y="68.7361" width="52.924" height="100.4243" style="fill:#fff;"></rect></g><path d="M98.43494,91.99064c-2.66281,3.39399-4.75565,7.13736-6.16006,11.22285-1.41145,4.10597-2.32339,8.72113-1.63379,13.05388,.58794,3.69402,2.77985,7.27152,6.32559,8.75475,3.81241,1.59479,7.81375,.07313,10.87259-2.36454,2.83661-2.26057,6.50404-6.20586,5.55324-10.16789-.99128-4.13071-5.92372-4.94757-9.3268-3.56157-7.81468,3.18274-11.5222,12.15947-12.11653,20.01832-.62846,8.31019,.72038,22.0082,10.98696,23.85478,1.88775,.33954,2.69767-2.55107,.79752-2.89284-7.32315-1.31717-8.59038-10.26033-8.84824-16.34296-.28691-6.76766,1.09632-14.01599,6.09308-18.94618,1.94598-1.92005,5.4532-4.56203,8.27364-2.91671,3.26183,1.90281-.47218,5.99537-2.16172,7.63056-2.14955,2.08041-5.216,4.02281-8.32696,3.1572-2.9283-.81479-4.6386-3.75597-5.15411-6.57861-.70321-3.85037,.25759-8.05321,1.48938-11.7,1.22827-3.63638,3.08769-7.07914,5.45753-10.09971,1.17856-1.50218-.93008-3.63966-2.12132-2.12132h0Z" style="fill:#f0f0f0;"></path></g><g><rect x="378.49419" y="68.7764" width="55.2727" height="70.9157" style="fill:#e6e6e6;"></rect><rect x="366.128" y="68.7764" width="64.92659" height="70.9157" style="fill:#f0f0f0;"></rect><rect x="372.11419" y="75.0753" width="52.6724" height="58.3177" style="fill:#fff;"></rect><rect x="389.416" y="93.7086" width="19.01339" height="21.0513" style="fill:#f0f0f0;"></rect></g><g><rect x="378.49419" y="167.6789" width="55.2727" height="70.9157" style="fill:#e6e6e6;"></rect><rect x="366.128" y="167.6789" width="64.92659" height="70.9157" style="fill:#f0f0f0;"></rect><rect x="372.11419" y="173.9778" width="52.6724" height="58.3178" style="fill:#fff;"></rect><rect x="389.416" y="192.6112" width="19.01339" height="21.0513" style="fill:#f0f0f0;"></rect></g><g><rect x="48.8843" y="305.486" width="132.3231" height="62.1471" style="fill:#ebebeb;"></rect><polygon points="59.7024 364.6938 48.8843 464.128 55.8463 464.128 76.6705 364.8518 59.7024 364.6938" style="fill:#ebebeb;"></polygon><polygon points="173.4274 364.6938 184.2455 464.128 177.2835 464.128 156.4593 364.8518 173.4274 364.6938" style="fill:#ebebeb;"></polygon><g><polygon points="82.2991 288.2352 88.1072 305.486 77.3722 305.486 82.2991 288.2352" style="fill:#e0e0e0;"></polygon><polygon points="62.044 305.486 82.2991 305.486 88.1072 277.3132 67.8655 277.3132 62.044 305.486" style="fill:#e6e6e6;"></polygon></g><g><path d="M119.133,287.004c-2.1378-5.1853-1.946-11.0388,.5271-16.073,4.2422-7.9046,5.4805-9.8546,2.6348-11.4881-2.8456-1.6336-3.926,6.3764-3.926,6.3764-1.3485-3.6172-1.4872-7.5745-.3953-11.2774,1.8708-5.7704,3.0566-15.1768,.4744-16.1781-2.5822-1.0013-.4744,11.7251-2.6349,16.0727-1.1343-3.0544-1.8694-6.2426-2.1869-9.4855-.2899-4.6375,.1843-12.0151-1.8446-13.9123-2.0288-1.897-3.3198-.606-1.3436,9.6174,1.1966,6.0784,1.8579,12.2503,1.9761,18.4442,0,0-4.4003-13.4115-7.3515-13.8067-2.951-.3953-2.951,3.9523-.4215,7.7201s7.404,10.5396,8.2208,13.9912c0,0-4.8481-10.0915-9.1694-6.9823-4.3212,3.1091,3.768,9.1695,7.3777,11.3826,3.6098,2.2134,6.1393,16.0203,6.1393,16.0203l1.9235-.4215Z" style="fill:#e0e0e0;"></path><path d="M116.2084,290.1922c2.0689-5.2044,1.81-11.0457-.7114-16.0465-4.3476-7.9047-5.5861-9.7755-2.8986-11.4355,2.6878-1.66,4.0051,6.3238,4.0051,6.3238,1.2963-3.6425,1.3886-7.6049,.2636-11.3037-1.9499-5.7441-3.2409-15.1243-.6852-16.1519,2.556-1.0277,.6325,11.699,2.8984,16.0201,1.1003-3.0678,1.8001-6.2649,2.0815-9.512,.2372-4.6373-.3161-12.015,1.6865-13.9385,2.0024-1.9235,3.3198-.6587,1.4491,9.6174-1.1186,6.0857-1.7092,12.2568-1.7652,18.4442,0,0,4.242-13.4644,7.1932-13.9123,2.951-.4478,3.0037,3.9261,.5007,7.7203-2.5033,3.7943-7.2724,10.5396-7.9047,14.1231,0,0,4.69-10.1707,9.064-7.1406,4.3739,3.03-3.6626,9.2484-7.2461,11.4882-3.5833,2.2396-5.9547,16.1254-5.9547,16.1254l-1.9762-.4215Z" style="fill:#ebebeb;"></path><polygon points="132.8609 284.3953 103.0338 284.3953 105.4579 305.7381 130.4631 305.7381 132.8609 284.3953" style="fill:#e0e0e0;"></polygon></g><path d="M171.4585,300.9313v4.1392h.6677v.6676h-30.9367c-1.5117,0-2.7372-1.2255-2.7372-2.7372s1.2255-2.7372,2.7372-2.7372h30.9367v.6676h-.6677Z" style="fill:#e0e0e0;"></path><path d="M174.7832,295.457v4.1391h.6676v.6676h-30.9367c-1.5117,0-2.7372-1.2254-2.7372-2.7371s1.2255-2.7372,2.7372-2.7372h30.9367v.6676h-.6676Z" style="fill:#e0e0e0;"></path><path d="M174.7832,295.457v4.1391h-14.9543c-1.1399-.0072-2.0623-.9296-2.0696-2.0695-.0074-1.1356,.9072-2.0622,2.0428-2.0696,.0089-.0001,.0179-.0001,.0268,0h14.9543Z" style="fill:#fff; isolation:isolate;"></path><path d="M170.604,289.9827v4.1391h.6676v.6676h-30.9367c-1.5117,0-2.7371-1.2255-2.7371-2.7372s1.2254-2.7371,2.7371-2.7371h30.9367v.6676h-.6676Z" style="fill:#e0e0e0;"></path><path d="M170.604,289.9827v4.1391h.6676v.6676h-15.5551c-1.5117,0-2.7372-1.2255-2.7372-2.7372s1.2255-2.7371,2.7372-2.7371h15.6219v.6676h-.7344Z" style="fill:#e6e6e6; isolation:isolate;"></path><path d="M170.604,289.9827v4.1391h-14.8875c-1.15,.0296-2.1062-.8787-2.1358-2.0287l-.0005-.0275c-.0157-1.1355,.8922-2.0687,2.0277-2.0843,.0362-.0005,.0724-.0001,.1086,.0014h14.8875Z" style="fill:#fff; isolation:isolate;"></path><path d="M174.51074,345.95996H56.10889v-32.80371h118.40186v32.80371Zm-117.40186-1h116.40186v-30.80371H57.10889v30.80371Z" style="fill:#e0e0e0;"></path><path d="M121.3557,329.5585c0,1.8823-1.526,3.4083-3.4084,3.4083-1.8823,0-3.4083-1.526-3.4083-3.4083,0-1.8824,1.526-3.4084,3.4083-3.4084,1.8824,0,3.4084,1.526,3.4084,3.4084Z" style="fill:#e0e0e0;"></path></g></g><g id="freepik--Shadow--inject-34"><path d="M457.297,464.1281c0,3.3611-92.81,6.0858-207.297,6.0858s-207.297-2.7247-207.297-6.0858,92.81-6.086,207.297-6.086,207.297,2.7248,207.297,6.086Z" style="fill:#f5f5f5;"></path></g><g id="freepik--Question_Mark--inject-34"><g><g><path d="M139.0416,420.0955c-7.2237,0-13.5295-2.4397-18.9176-7.319-5.3881-4.8793-8.0822-11.7015-8.0822-20.4745,0-7.7822,2.6052-14.3291,7.8157-19.6407,5.2105-5.3091,11.6052-7.9675,19.1841-7.9675,7.4604,0,13.7367,2.6584,18.8287,7.9675,5.0921,5.3116,7.6381,11.8585,7.6381,19.6407,0,8.6469-2.6644,15.4434-7.9933,20.3819-5.3289,4.9385-11.4868,7.4116-18.4735,7.4116Z" style="fill:#4096FF;"></path><path d="M55.8463,224.1761c0-11.4288,3.5175-23.0079,10.5527-34.7375,7.0351-11.7295,17.2994-21.444,30.793-29.1434,13.4936-7.6969,29.2361-11.5491,47.2275-11.5491,16.7228,0,31.485,3.2206,44.2866,9.6543,12.8016,6.4362,22.6911,15.1883,29.6686,26.2562,6.9774,11.0704,10.4661,23.0982,10.4661,36.0909,0,10.2257-1.9894,19.1908-5.9683,26.8877-3.9789,7.6994-8.7074,14.3461-14.18549,19.9402-5.47821,5.5941-15.3101,15.0078-29.4956,28.2412-3.9212,3.7294-7.0639,7.0101-9.4282,9.8348-2.3643,2.8271-4.123,5.4136-5.2763,7.7595s-2.0471,4.6918-2.6815,7.0377c-.6343,2.3459-1.5857,6.4688-2.8544,12.3612-2.1912,12.514-9.0533,18.7672-20.5863,18.7672-5.9972,0-11.0428-2.0451-15.137-6.1354-4.0942-4.0878-6.1413-10.1656-6.1413-18.2259,0-10.1055,1.4992-18.8575,4.4978-26.2562,2.9986-7.3986,6.9775-13.895,11.9366-19.4891,4.9592-5.5941,11.6483-12.2408,20.0674-19.9402,7.3811-6.737,12.7151-11.8198,16.002-15.2484s6.0548-7.2458,8.3037-11.4589c2.249-4.2106,3.3734-8.7796,3.3734-13.7145,0-9.6243-3.431-17.7447-10.2931-24.3614-6.8622-6.6141-15.7137-9.925-26.5547-9.925-12.6863,0-22.028,3.3384-28.0251,10.0153-5.9972,6.6768-11.0717,16.5115-15.2235,29.5043-3.9213,13.5967-11.36,20.3913-22.3163,20.3913-6.4585,0-11.9078-2.3734-16.348-7.1279-4.4402-4.752-6.6603-9.8949-6.6603-15.4289Z" style="fill:#4096FF;"></path></g><g style="opacity:.3;"><path d="M139.0416,420.0955c-7.2237,0-13.5295-2.4397-18.9176-7.319-5.3881-4.8793-8.0822-11.7015-8.0822-20.4745,0-7.7822,2.6052-14.3291,7.8157-19.6407,5.2105-5.3091,11.6052-7.9675,19.1841-7.9675,7.4604,0,13.7367,2.6584,18.8287,7.9675,5.0921,5.3116,7.6381,11.8585,7.6381,19.6407,0,8.6469-2.6644,15.4434-7.9933,20.3819-5.3289,4.9385-11.4868,7.4116-18.4735,7.4116Z"></path><path d="M55.8463,224.1761c0-11.4288,3.5175-23.0079,10.5527-34.7375,7.0351-11.7295,17.2994-21.444,30.793-29.1434,13.4936-7.6969,29.2361-11.5491,47.2275-11.5491,16.7228,0,31.485,3.2206,44.2866,9.6543,12.8016,6.4362,22.6911,15.1883,29.6686,26.2562,6.9774,11.0704,10.4661,23.0982,10.4661,36.0909,0,10.2257-1.9894,19.1908-5.9683,26.8877-3.9789,7.6994-8.7074,14.3461-14.18549,19.9402-5.47821,5.5941-15.3101,15.0078-29.4956,28.2412-3.9212,3.7294-7.0639,7.0101-9.4282,9.8348-2.3643,2.8271-4.123,5.4136-5.2763,7.7595s-2.0471,4.6918-2.6815,7.0377c-.6343,2.3459-1.5857,6.4688-2.8544,12.3612-2.1912,12.514-9.0533,18.7672-20.5863,18.7672-5.9972,0-11.0428-2.0451-15.137-6.1354-4.0942-4.0878-6.1413-10.1656-6.1413-18.2259,0-10.1055,1.4992-18.8575,4.4978-26.2562,2.9986-7.3986,6.9775-13.895,11.9366-19.4891,4.9592-5.5941,11.6483-12.2408,20.0674-19.9402,7.3811-6.737,12.7151-11.8198,16.002-15.2484s6.0548-7.2458,8.3037-11.4589c2.249-4.2106,3.3734-8.7796,3.3734-13.7145,0-9.6243-3.431-17.7447-10.2931-24.3614-6.8622-6.6141-15.7137-9.925-26.5547-9.925-12.6863,0-22.028,3.3384-28.0251,10.0153-5.9972,6.6768-11.0717,16.5115-15.2235,29.5043-3.9213,13.5967-11.36,20.3913-22.3163,20.3913-6.4585,0-11.9078-2.3734-16.348-7.1279-4.4402-4.752-6.6603-9.8949-6.6603-15.4289Z"></path></g><g><path d="M139.0416,412.8172c-7.2237,0-13.5295-2.4397-18.9176-7.319-5.3881-4.8793-8.0822-11.7016-8.0822-20.4745,0-7.7822,2.6052-14.3291,7.8157-19.6407,5.2105-5.3091,11.6052-7.9675,19.1841-7.9675,7.4604,0,13.7367,2.6584,18.8287,7.9675,5.0921,5.3116,7.6381,11.8585,7.6381,19.6407,0,8.6468-2.6644,15.4434-7.9933,20.3819-5.3289,4.9385-11.4868,7.4116-18.4735,7.4116Z" style="fill:#4096FF;"></path><path d="M55.8463,216.8978c0-11.4288,3.5175-23.008,10.5527-34.7375,7.0351-11.7296,17.2994-21.444,30.793-29.1434,13.4936-7.6969,29.2361-11.5491,47.2275-11.5491,16.7228,0,31.485,3.2206,44.2866,9.6543,12.8016,6.4362,22.6911,15.1883,29.6686,26.2561,6.9774,11.0704,10.4661,23.0982,10.4661,36.091,0,10.2257-1.9894,19.1908-5.9683,26.8877-3.9789,7.6994-8.7074,14.3461-14.18549,19.9402-5.47821,5.5941-15.3101,15.0078-29.4956,28.2412-3.9212,3.7293-7.0639,7.0101-9.4282,9.8347-2.3643,2.8271-4.123,5.4137-5.2763,7.7596s-2.0471,4.6918-2.6815,7.0377c-.6343,2.3459-1.5857,6.4688-2.8544,12.3611-2.1912,12.5141-9.0533,18.7673-20.5863,18.7673-5.9972,0-11.0428-2.0451-15.137-6.1354-4.0942-4.0878-6.1413-10.1657-6.1413-18.226,0-10.1054,1.4992-18.8575,4.4978-26.2561s6.9775-13.895,11.9366-19.4891c4.9592-5.5941,11.6483-12.2408,20.0674-19.9402,7.3811-6.737,12.7151-11.8198,16.002-15.2484,3.2869-3.4287,6.0548-7.2458,8.3037-11.4589,2.249-4.2106,3.3734-8.7796,3.3734-13.7145,0-9.6243-3.431-17.7447-10.2931-24.3614-6.8622-6.6142-15.7137-9.925-26.5547-9.925-12.6863,0-22.028,3.3384-28.0251,10.0152-5.9972,6.6768-11.0717,16.5116-15.2235,29.5043-3.9213,13.5968-11.36,20.3914-22.3163,20.3914-6.4585,0-11.9078-2.3735-16.348-7.1279-4.4402-4.752-6.6603-9.895-6.6603-15.4289Z" style="fill:#4096FF;"></path></g></g></g><g id="freepik--Speech_Bubble_2--inject-34"><g><g><path d="M383.05219,85.7861c-10.8745-8.0243-26.1951-5.7137-34.2193,5.1608-6.1948,8.3953-6.206,19.4279-.8963,27.72l-1.9771,7.0787,7.7204-.8366c.1083,.0828,.2039,.176,.31411,.2572,10.87439,8.0243,26.19489,5.7135,34.219-5.1609,8.02429-10.8747,5.71369-26.1951-5.16081-34.2192Z" style="fill:#4096FF;"></path><path d="M383.05219,85.7861c-10.8745-8.0243-26.1951-5.7137-34.2193,5.1608-6.1948,8.3953-6.206,19.4279-.8963,27.72l-1.9771,7.0787,7.7204-.8366c.1083,.0828,.2039,.176,.31411,.2572,10.87439,8.0243,26.19489,5.7135,34.219-5.1609,8.02429-10.8747,5.71369-26.1951-5.16081-34.2192Z" style="fill:#fff; opacity:.7;"></path><path d="M396.0791,104.83545h-.00781c-.1377-.00439-.24609-.11963-.24219-.25732,.23242-7.83838-3.80664-15.75488-10.28809-20.16846-.11426-.07764-.14355-.23291-.06641-.34717,.07812-.11475,.2334-.14307,.34766-.06592,6.61914,4.50684,10.74316,12.59131,10.50684,20.59619-.00391,.13574-.11523,.24268-.25,.24268Z" style="fill:#4096FF;"></path><path d="M395.26074,112.0459c-.03027,0-.06055-.00537-.08984-.0166-.12891-.0498-.19336-.19434-.14355-.32324,.42188-1.09473,.61719-2.29346,.56543-3.46631-.00586-.13818,.10059-.25488,.23926-.26123,.14062-.00391,.25488,.10107,.26074,.23877,.05469,1.2417-.15234,2.51025-.59863,3.66846-.03809,.09912-.13281,.16016-.2334,.16016Z" style="fill:#4096FF;"></path></g><path d="M366.935,106.6775c.41179-.6998,1.01259-1.472,1.80139-2.3168,.5787-.6181,1.0033-1.1382,1.2748-1.5601,.2724-.4218,.4081-.9006,.4081-1.4372,0-.7612-.2586-1.3638-.7758-1.8068-.5173-.4429-1.2052-.664-2.0637-.664-.8246,0-1.5564,.2008-2.1957,.6026-.6402,.4007-1.1786,.963-1.6169,1.683l-3.1817-2.1929c.73651-1.3181,1.7307-2.338,2.9844-3.0588,1.2529-.7209,2.7387-1.0813,4.4566-1.0813,2.0159,0,3.6328,.5053,4.8508,1.5141,1.218,1.009,1.827,2.4095,1.827,4.2017,0,.8446-.11829,1.5857-.3549,2.224-.2366,.6384-.5255,1.1795-.8676,1.6215-.3412,.443-.7842,.953-1.3271,1.53-.6485,.6795-1.1218,1.251-1.4199,1.7141-.298,.4632-.4475,1.0245-.4475,1.6839h-3.9695c0-1.0712,.2055-1.9563,.61721-2.657Zm-.42,9.3638c-.48241-.4885-.72361-1.0829-.72361-1.784,0-.7002,.2365-1.2856,.7098-1.756,.4733-.4696,1.0786-.7052,1.8141-.7052,.7366,0,1.3409,.2356,1.8142,.7052,.4733,.4704,.7099,1.0558,.7099,1.756,0,.7011-.2403,1.2955-.7227,1.784s-1.0823,.7323-1.8014,.7323c-.7181,0-1.3188-.2438-1.80029-.7323Z" style="fill:#4096FF;"></path></g></g><g id="freepik--Speech_Bubble_1--inject-34"><g><g><path d="M153.0128,81.5453c-7.1462,11.4706-3.6407,26.5626,7.8299,33.7088,8.8555,5.517,19.855,4.6625,27.7049-1.2814l7.212,1.4155-1.4398-7.631c.074-.1144,.1594-.217,.2318-.3332,7.1462-11.4706,3.6405-26.5625-7.83-33.7086-11.4708-7.1463-26.5627-3.6408-33.7088,7.8299Z" style="fill:#4096FF;"></path><path d="M153.0128,81.5453c-7.1462,11.4706-3.6407,26.5626,7.8299,33.7088,8.8555,5.517,19.855,4.6625,27.7049-1.2814l7.212,1.4155-1.4398-7.631c.074-.1144,.1594-.217,.2318-.3332,7.1462-11.4706,3.6405-26.5625-7.83-33.7086-11.4708-7.1463-26.5627-3.6408-33.7088,7.8299Z" style="fill:#fff; opacity:.7;"></path><path d="M151.22852,79.29834c-.04248,0-.08496-.01074-.12402-.03271-.12012-.06885-.16162-.22168-.09326-.34131,3.97412-6.95312,11.70996-11.69873,19.7085-12.09033,.12842-.01172,.25488,.09912,.26172,.2373,.00684,.1377-.09961,.25537-.2373,.26172-7.83203,.38379-15.40723,5.03076-19.29834,11.83936-.04639,.08057-.13086,.12598-.21729,.12598Z" style="fill:#4096FF;"></path><path d="M177.98486,67.5835c-.02344,0-.04736-.00342-.07129-.01025-1.12598-.33496-2.33643-.43701-3.5-.2915-.13867,.01904-.26221-.08057-.27881-.21729-.01709-.13721,.08008-.26172,.21729-.27881,1.22998-.15332,2.5127-.04736,3.7041,.30811,.13232,.03955,.20752,.17871,.16846,.31104-.03223,.1084-.13184,.17871-.23975,.17871Z" style="fill:#4096FF;"></path></g><path d="M173.0723,95.3479c.4118-.6999,1.0126-1.4721,1.8013-2.3168,.5788-.6181,1.0034-1.1382,1.2748-1.5601,.2725-.4218,.4082-.9006,.4082-1.4372,0-.7613-.2586-1.3638-.7759-1.8068-.5173-.443-1.2051-.664-2.0636-.664-.8246,0-1.5565,.2008-2.1957,.6026-.6402,.4007-1.1786,.963-1.6169,1.683l-3.1818-2.1929c.7365-1.3181,1.7308-2.338,2.9845-3.0588,1.2528-.721,2.7386-1.0813,4.4565-1.0813,2.016,0,3.6329,.5053,4.8509,1.5141,1.218,1.009,1.827,2.4094,1.827,4.2016,0,.8447-.1183,1.5858-.3549,2.2241-.2367,.6384-.5256,1.1795-.8676,1.6215-.3413,.443-.7843,.9529-1.3272,1.5299-.6485,.6796-1.1217,1.251-1.4198,1.7141-.2981,.4633-.4475,1.0246-.4475,1.684h-3.9696c0-1.0713,.2055-1.9563,.6173-2.657Zm-.42,9.3637c-.4825-.4884-.7236-1.0828-.7236-1.7839,0-.7002,.2365-1.2856,.7098-1.756,.4732-.4696,1.0786-.7053,1.8141-.7053,.7365,0,1.3409,.2357,1.8142,.7053,.4732,.4704,.7099,1.0558,.7099,1.756,0,.7011-.2403,1.2955-.7227,1.7839-.4825,.4886-1.0823,.7323-1.8014,.7323-.7181,0-1.3188-.2437-1.8003-.7323Z" style="fill:#4096FF;"></path></g></g><g id="freepik--Plant--inject-34"><g><g><g><path d="M401.13479,423.7368c-.0177-.5566-1.89079-55.8381-10.8829-64.582-8.7457-8.5019-18.7835-.3161-19.2056,.0357l-.9015-1.0803c.1136-.0961,11.4418-9.3431,21.0884,.0357,9.3959,9.1369,11.2342,63.2476,11.3076,65.5468l-1.406,.0441Z" style="fill:#263238;"></path><path d="M401.90669,434.6011c-.0648-.6608-6.1455-66.3659,17.8497-93.904l1.0611,.9234c-23.5977,27.0822-17.57349,92.1894-17.51049,92.8432l-1.40031,.1374Z" style="fill:#263238;"></path><path d="M401.01959,427.651l-1.4047-.0935c.0494-.7448,4.6963-74.6975-12.9047-90.8861l.9523-1.0364c18.0944,16.6439,13.5589,88.9459,13.3571,92.016Z" style="fill:#263238;"></path><path d="M403.31059,427.6098l-1.4075-.0111c.0173-2.0368,.5808-49.9517,14.1912-57.7512,3.02571-1.7358,5.9883-2.0243,8.8065-.8592,8.2297,3.4045,12.30821,18.0513,12.4778,18.6727l-1.3577,.371c-.04-.1461-4.0668-14.6043-11.6597-17.7434-2.39319-.9881-4.9386-.727-7.56719,.7793-12.91521,7.401-13.47921,56.0514-13.48341,56.5419Z" style="fill:#263238;"></path><path d="M398.01009,427.6441l-1.4043-.0795c.02121-.3783,2.0533-37.8643-8.0635-51.0721-2.45129-3.1995-5.1122-4.725-7.9234-4.5282-6.6286,.4629-12.1872,10.1631-12.2424,10.261l-1.2258-.6927c.24131-.4263,5.9841-10.455,13.3678-10.9719,3.30351-.2349,6.3828,1.476,9.1411,5.0771,10.4343,13.6214,8.4407,50.4464,8.3505,52.0063Z" style="fill:#263238;"></path><path d="M400.22859,432.7432c-.2755-3.6368-6.6135-89.2302,4.5382-104.3125l1.131,.8354c-10.8432,14.6661-4.3327,102.4847-4.2661,103.3697l-1.4031,.1074Z" style="fill:#263238;"></path></g><path d="M429.95259,373.7147s-7.1169,2.6299-4.7009,8.2889c6.8076,15.9452,23.0339,17.6444,23.0339,17.6444,0,0,7.614-12.0534,1.3731-21.4151-8.6045-12.9066-19.5253-8.6852-19.7061-4.5182Z" style="fill:#4096FF;"></path><path d="M398.85039,366.5794s7.1239-.2984,7.5289,5.8414c.4048,6.1394-15.43329,23.1251-15.43329,23.1251,0,0-11.30231-4.086-8.87471-19.4071,2.42771-15.3208,15.0088-13.3359,16.7791-9.5594Z" style="fill:#4096FF;"></path><path d="M402.30429,330.7998s-2.9919-.3681-4.1172-3.0606c-3.3564-8.0317,8.17791-16.6923,23.5996-12.1163,0,0,.40831,13.5707-7.8904,18.9233-8.2991,5.3526-11.592-3.7464-11.592-3.7464Z" style="fill:#4096FF;"></path><path d="M375.87609,372.8856s2.4825-3.404-1.2688-3.7377c-3.75129-.3336-19.9897,6.9431-15.7198,23.5999,0,0,20.8863-6.8126,21.6107-13.7864,.7245-6.9737-4.6221-6.0758-4.6221-6.0758Z" style="fill:#4096FF;"></path><path d="M420.40659,336.7587s.9382-3.0907,4.4756-4.3826c3.5375-1.2918,16.6792-.4809,16.8601,16.7132,0,0-20.21629,3.36-22.7185-3.1896-2.5022-6.5494,1.3828-9.141,1.3828-9.141Z" style="fill:#4096FF;"></path><path d="M409.49449,351.0466s1.3589-2.3568,3.9564-1.0955c2.5974,1.2608,10.255,9.1404,2.9529,18.6519,0,0-13.5686-8.1582-12.45979-13.884,1.02219-5.2773,5.55049-3.6724,5.55049-3.6724Z" style="fill:#4096FF;"></path><path d="M376.25159,355.1942s1.95941-2.5677-.9101-2.8862c-2.8698-.3181-15.7306,3.1148-12.7354,15.9531,0,0,15.6678-1.1774,16.3393-6.5106,.6714-5.3334-2.6938-6.5563-2.6938-6.5563Z" style="fill:#4096FF;"></path><polygon points="421.05059 461.951 382.75569 461.951 378.62449 422.3254 425.18189 422.3254 421.05059 461.951" style="fill:#263238;"></polygon><rect x="372.18469" y="416.8965" width="59.4372" height="10.8575" style="fill:#263238;"></rect></g><path d="M389.54688,390.13672c-.12305,0-.23047-.08984-.24805-.21484-1.12109-7.97656,2.65039-17.43164,9.38379-23.52832,.10156-.09277,.25977-.08496,.35352,.01758,.09277,.10254,.08496,.26074-.01758,.35352-6.61621,5.99023-10.32324,15.26758-9.22363,23.08691,.01855,.13672-.07617,.26367-.21289,.2832-.01172,.00098-.02344,.00195-.03516,.00195Z" style="opacity:.3;"></path><path d="M415.87988,363.66016c-.11719,0-.22168-.08203-.24512-.20117-.87988-4.41406-3.12305-8.5918-6.31641-11.76367-.09863-.09766-.09863-.25586-.00195-.35352,.09766-.09961,.25586-.09766,.35352-.00195,3.26367,3.24219,5.55566,7.51074,6.45508,12.02148,.02734,.13574-.06055,.2666-.19629,.29395-.0166,.00293-.0332,.00488-.04883,.00488Z" style="opacity:.3;"></path><path d="M445.58887,389.26074c-.09277,0-.18164-.05176-.22461-.14062-3.12793-6.42383-9.21777-12.38184-15.51367-15.17676-.12598-.05566-.18262-.2041-.12695-.33008s.20508-.18164,.33008-.12695c6.39746,2.84082,12.58301,8.8916,15.75977,15.41504,.06055,.12402,.00879,.27344-.11523,.33398-.03516,.01758-.07227,.02539-.10938,.02539Z" style="opacity:.3;"></path><path d="M437.96777,344.81934c-.08301,0-.16406-.04102-.21191-.11621-1.83203-2.90625-4.6084-5.18066-7.81738-6.4043-3.40234-1.29785-6.2627-2.21777-9.46289-1.2998-.13965,.04004-.27246-.03906-.30957-.1709-.03809-.13281,.03906-.27148,.1709-.30957,3.35645-.96094,6.28906-.01855,9.7793,1.31348,3.31055,1.26172,6.17383,3.60742,8.06348,6.60352,.07324,.11719,.03809,.27148-.07812,.3457-.04199,.02539-.08789,.03809-.13379,.03809Z" style="opacity:.3;"></path><path d="M392.05139,339.6557s4.7433,.5662,5.0181-2.3388c.2751-2.9051-15.6799-14.2102-28.77249-4.8638,0,0,4.03049,12.9647,13.61969,15.3248,9.5891,2.3604,10.1347-8.1222,10.1347-8.1222Z" style="fill:#4096FF;"></path><path d="M391.9043,340.14258c-.07617,0-.15137-.03516-.2002-.10059-4.79102-6.43848-16.93359-8.7998-21.11719-7.28613-.12988,.04492-.27344-.02148-.32031-.15039-.04688-.12988,.02051-.27344,.15039-.32031,4.24316-1.53613,16.5918,.60938,21.6875,7.45801,.08301,.11133,.05957,.26758-.05078,.34961-.04492,.03418-.09766,.0498-.14941,.0498Z" style="opacity:.3;"></path><path d="M365.71777,363.50684c-.04492,0-.08984-.01172-.12988-.03613-.11816-.07227-.15527-.22559-.08398-.34375,2.68848-4.41016,7.92285-6.86523,10.80469-7.93555,.12598-.04785,.27344,.01758,.32129,.14746,.04785,.12891-.01758,.27344-.14746,.32129-2.82031,1.04785-7.94238,3.44531-10.55078,7.72656-.04785,.07715-.12988,.12012-.21387,.12012Z" style="opacity:.3;"></path><path d="M361.11914,386.67578c-.03906,0-.0791-.00879-.11523-.02832-.12305-.06348-.16992-.21484-.10645-.33691,3.2334-6.19922,8.55566-11.11914,14.98828-13.85449,.12695-.0498,.27246,.00391,.32812,.13281,.05371,.12695-.00586,.27344-.13281,.32812-6.23438,2.65039-11.60645,7.61621-14.74023,13.62402-.04492,.08594-.13184,.13477-.22168,.13477Z" style="opacity:.3;"></path><path d="M402.93262,330.72656c-.03613,0-.07129-.00781-.10645-.02344-.125-.05859-.17871-.20801-.12012-.33301,2.55859-5.46484,7.52148-9.81738,13.27539-11.64258,.12891-.03906,.27148,.03125,.31348,.16309,.04199,.13086-.03125,.27148-.16309,.31348-5.62207,1.78418-10.47168,6.03711-12.97266,11.37891-.04297,.08984-.13281,.14355-.22656,.14355Z" style="opacity:.3;"></path><polygon points="379.19049 427.754 379.93209 434.8677 423.87419 434.8677 424.61659 427.7455 379.19049 427.754" style="opacity:.3;"></polygon></g></g><g id="freepik--Character_1--inject-34"><g><g><polygon points="251.363 424.4454 255.26139 453.0477 264.58279 453.5187 267.60109 425.9453 251.363 424.4454" style="fill:#263238;"></polygon><path d="M272.51949,466.3271h-20.8501s-.4549-.8757,.0649-3.2071c.0793-.3633,.1828-.7625,.3175-1.1976,.00721-.0219,.0118-.0435,.01921-.065,.19489-.6449,.41869-1.4388,.65679-2.2954,.9549-3.4905,2.0785-8.0515,2.0785-8.0515,0,0,3.4689-7.4267,7.5274-5.5719,3.5606,1.6263,2.7159,6.2812,2.7159,6.2812,0,0,.3489,2.7332,3.0483,5.1436,1.6694,1.4891,3.3294,2.6415,4.12811,4.494,.14939,.3462,.26709,.7144,.35119,1.1137,.0096,.0481,.0195,.0986,.0266,.1489,.166,.8927,.1564,1.9392-.0843,3.2071Z" style="fill:#263238;"></path><path d="M251.73429,463.12c-.5198,2.3314-.0649,3.2071-.0649,3.2071h20.8501c.2407-1.2679,.2503-2.3144,.0843-3.2071h-20.8695Z" style="fill:#fff; opacity:.3;"></path><path d="M264.21019,453.389c-1.1727-.9137-2.7113-.7952-3.76619,.2336-.28361,.2766-.71911-.1581-.435-.4351,1.31639-1.2842,3.19609-1.3559,4.63629-.2337,.3121,.2432-.1262,.676-.4351,.4352h0Z" style="fill:#4096FF;"></path><path d="M264.79889,455.3362c-1.1728-.9136-2.7115-.7952-3.7662,.2336-.2836,.2768-.7192-.158-.4352-.435,1.31651-1.2841,3.1962-1.3558,4.6366-.2337,.312,.243-.1264,.6756-.4352,.4351h0Z" style="fill:#4096FF;"></path><path d="M265.39,457.1266c-1.17271-.9138-2.71131-.7953-3.76631,.2335-.2834,.2768-.7191-.158-.4349-.4351,1.3165-1.2841,3.1961-1.3557,4.63621-.2337,.31229,.2433-.126,.6759-.435,.4353h0Z" style="fill:#4096FF;"></path></g><g><polygon points="212.22859 422.6551 208.33009 451.2575 199.00869 451.7284 195.9904 424.1551 212.22859 422.6551" style="fill:#263238;"></polygon><path d="M191.072,464.5368h20.85009s.45491-.8757-.0649-3.207c-.0793-.3633-.1827-.7625-.3174-1.1977-.0073-.0218-.0119-.0435-.0192-.065-.1948-.6449-.4187-1.4388-.6568-2.2954-.955-3.4905-2.0785-8.0514-2.0785-8.0514,0,0-3.469-7.4267-7.5274-5.5719-3.5607,1.6262-2.716,6.2812-2.716,6.2812,0,0-.34889,2.733-3.0483,5.1435-1.6694,1.4891-3.3294,2.6416-4.1281,4.494-.1492,.3462-.267,.7144-.3512,1.1136-.0094,.0482-.0195,.0987-.0265,.1491-.166,.8927-.1564,1.9391,.0842,3.207Z" style="fill:#263238;"></path><path d="M211.85719,461.3298c.51981,2.3313,.0649,3.207,.0649,3.207h-20.85009c-.2406-1.2679-.2502-2.3143-.0842-3.207h20.8694Z" style="fill:#fff; opacity:.3;"></path><path d="M199.38139,451.5988c1.17261-.9138,2.7112-.7953,3.7661,.2336,.2836,.2766,.7192-.1581,.4352-.4352-1.3165-1.2841-3.1963-1.3559-4.6365-.2336-.3121,.2431,.1263,.6758,.4352,.4352h0Z" style="fill:#4096FF;"></path><path d="M198.79259,453.546c1.1729-.9137,2.7115-.7953,3.7663,.2336,.2837,.2768,.71911-.158,.43511-.4351-1.31651-1.284-3.19611-1.3558-4.63651-.2336-.312,.2429,.1263,.6756,.4351,.4351h0Z" style="fill:#4096FF;"></path><path d="M198.20159,455.3363c1.1726-.9138,2.71141-.7953,3.7663,.2336,.2833,.2767,.719-.158,.435-.4351-1.3166-1.2841-3.1963-1.3557-4.6363-.2337-.3124,.2432,.126,.6758,.435,.4352h0Z" style="fill:#4096FF;"></path></g><g><path d="M271.78079,236.6784l-43.3606,2.5843-26.5265-4.5812s-1.8009,30.2935-4.0671,102.2757c-.4944,15.6973-4.6425,109.01-4.6425,109.01l23.3178,2.376s11.5818-96.7814,13.3519-105.2327c1.0647-5.0836,5.0395-43.2505,8.1991-61.4957,1.5305,15.2157,2.7942,51.9394,3.9508,61.8185,0,0,5.7882,79.4229,6.60831,101.9529l21.73529-1.0793c2.6816-30.9308,3.5919-143.5983,3.5919-143.5983l-.0036-.0017c1.5042-23.5969-2.1548-64.0285-2.1548-64.0285Z" style="fill:#263238;"></path><path d="M271.78079,236.6784l-43.3606,2.5843-26.5265-4.5812s-1.8009,30.2935-4.0671,102.2757c-.4944,15.6973-4.6425,109.01-4.6425,109.01l23.3178,2.376s11.5818-96.7814,13.3519-105.2327c1.0647-5.0836,5.0395-43.2505,8.1991-61.4957,1.5305,15.2157,2.7942,51.9394,3.9508,61.8185,0,0,5.7882,79.4229,6.60831,101.9529l21.73529-1.0793c2.6816-30.9308,3.5919-143.5983,3.5919-143.5983l-.0036-.0017c1.5042-23.5969-2.1548-64.0285-2.1548-64.0285Z" style="fill:#fff; opacity:.4;"></path></g><g><g><path d="M219.24459,134.7378c4.0277-.2503,14.3777-2.3692,29.2562-.7851,7.7437,.8245,14.0681,.6436,22.0129,4.2924l3.9281,95.361c.0595,7.8804-1.2057,8.9834-1.2057,8.9834,0,0,.2274,4.4746,.2443,4.6131-26.1479,10.1055-56.2627,9.4459-72.91839-.9331,.39269,.0654,0-3.2323,0-3.2323,0,0-2.51081-2.5447-1.65111-10.6435,2.8683-27.0213,9.1543-70.5745,13.6136-94.8756,.1184-.5999,6.1099-2.7423,6.7201-2.7803Z" style="fill:#4096FF;"></path><path d="M219.24459,134.7378c4.0277-.2503,14.3777-2.3692,29.2562-.7851,7.7437,.8245,14.0681,.6436,22.0129,4.2924l3.9281,95.361c.0595,7.8804-1.2057,8.9834-1.2057,8.9834,0,0,.2274,4.4746,.2443,4.6131-26.1479,10.1055-56.2627,9.4459-72.91839-.9331,.39269,.0654,0-3.2323,0-3.2323,0,0-2.51081-2.5447-1.65111-10.6435,2.8683-27.0213,9.1543-70.5745,13.6136-94.8756,.1184-.5999,6.1099-2.7423,6.7201-2.7803Z" style="opacity:.3;"></path></g><path d="M267.65519,143.4641c-1.0316,0-5.2297,9.7378-7.9116,21.5465-2.6819,11.8088-9.587,34.0327-9.587,34.0327l-41.198,6.4994-2.3658,19.6396s54.98121,5.0357,61.3765-1.8527c6.3954-6.8884,4.651-8.2138,6.9714-20.4582,2.0692-10.9191,3.1667-38.3408,2.8414-45.6197-.4642-10.385-8.7034-13.7597-10.1269-13.7876Z" style="opacity:.3;"></path></g><g><path d="M190.48,205.5427s-5.2855,7.996-1.7619,10.0289c3.5237,2.0328,16.7331,5.5565,16.7331,5.5565v-14.9726l-14.97119-.6128Z" style="fill:#ebb373;"></path><g><path d="M270.16519,138.0885c-1.0316,0-6.7431,10.5979-9.425,22.4066s-8.2521,39.9528-8.2521,39.9528l-47.0369,5.7076v16.9258s56.7331,3.9363,63.1285-2.9522c6.3954-6.8884,6.5506-10.3889,8.871-22.6333,2.0692-10.9192,3.1667-38.3408,2.8414-45.6197-.4642-10.385-8.7034-13.7597-10.1269-13.7876Z" style="fill:#4096FF;"></path><path d="M270.16519,138.0885c-1.0316,0-6.7431,10.5979-9.425,22.4066s-8.2521,39.9528-8.2521,39.9528l-47.0369,5.7076v16.9258s56.7331,3.9363,63.1285-2.9522c6.3954-6.8884,6.5506-10.3889,8.871-22.6333,2.0692-10.9192,3.1667-38.3408,2.8414-45.6197-.4642-10.385-8.7034-13.7597-10.1269-13.7876Z" style="opacity:.3;"></path></g><path d="M260.9555,151.24339c1.58065-5.56053,6.73693-9.8224,12.5059-10.29269,.47772-.03894,.48189-.78928,0-.75-6.10522,.49771-11.55224,4.9443-13.2291,10.84331-.1322,.46508,.59124,.66362,.72321,.19938h0Z" style="opacity:.3;"></path></g><g><path d="M222.42649,131.9125s.7494,2.2878,.2104,3.0272c-.5391,.7394-1.19789,.9108-1.19789,.9108,0,0,1.15329,1.7141,.69639,2.7997,0,0,1.73,1.9426,.6965,3.2567-1.0335,1.3142-2.1715,.5714-2.5308,0-.3594-.5713-1.9165,3.4643-3.893,2.5892-1.9764-.8751-.0599-3.2177,.5391-4.0747l-1.9166,.2857s-2.8149,6.285-4.9111,6.5707-7.83549-.3068-8.3498-2.7817c0,0,8.9596-16.3825,9.5818-16.7386,.4578-.2621,5.767-1.424,8.5399-2.0196,1.0318-.2217,2.087,.2218,2.6204,1.0931,.8836,1.4431,1.949,3.5289,1.159,4.1318l-1.2443,.9497" style="fill:#ebb373;"></path><path d="M201.09659,145.8597c-.48559,.6949-15.083,45.8776-12.655,54.2162,2.428,8.3387,6.07,11.3499,12.1399,10.1917,6.07-1.1581,9.2264-3.0112,9.9548-10.6549,.7284-7.6438,5.881-50.0597,2.3222-52.269-1.7087-1.0608-11.7619-1.484-11.7619-1.484Z" style="opacity:.3;"></path><g><path d="M198.73159,144.0859c-.48559,.6949-15.0831,45.8776-12.6551,54.2162,2.428,8.3387,6.07,11.3499,12.14,10.1917,6.0699-1.1581,9.2263-3.0112,9.9547-10.6549,.7284-7.6438,6.9145-50.1547,5.05281-50.9155-1.86181-.7609-14.49241-2.8375-14.49241-2.8375Z" style="fill:#4096FF;"></path><path d="M198.73159,144.0859c-.48559,.6949-15.0831,45.8776-12.6551,54.2162,2.428,8.3387,6.07,11.3499,12.14,10.1917,6.0699-1.1581,9.2263-3.0112,9.9547-10.6549,.7284-7.6438,6.9145-50.1547,5.05281-50.9155-1.86181-.7609-14.49241-2.8375-14.49241-2.8375Z" style="opacity:.3;"></path></g></g><g><path d="M248.95429,137.2291s-6.7921,5.7648-8.5644,6.2038c-2.3828,.5902-9.7668-7.3746-9.7668-7.3746,2.93091-3.8059,1.5103-6.729,.8538-11.1086l18.6797-18.0406s-1.9462-.0454-1.95659,0c-.47671,1.5684-.58941,11.0721-.246,23.0928l1.00029,7.2272Z" style="fill:#ebb373;"></path><g><g style="opacity:.2;"><path d="M240.96269,124.0621c-1.5682,3.0607-5.0313,5.4283-8.5118,6.3759-.027-.3242-.1532-.7897-.19389-1.1086-.06231-.5023-.25311-1.2464-.35351-1.7658-.1288-.6362-.28849-1.3224-.4838-1.9654-.09469-.2509-.189-.1876-.28369-.4384l-.19471-.5158,9.7001-6.242c1.016,.4127,1.5819,3.1774,.3213,5.6601Z"></path></g><path d="M248.81729,94.4769c-.3002-12.0112-12.7985-20.0215-23.9156-14.34-11.2836,5.7667-11.37969,23.6432-7.88469,34.1557,3.88259,11.6798,19.104,15.8751,27.38279,5.865,5.5036-6.6546,4.7176-13.6694,4.4175-25.6807h0Z" style="fill:#ebb373;"></path></g><path d="M232.06239,101.8161c.1914,1.2123-.2981,2.2901-1.093,2.4077-.7948,.1175-1.59439-.7703-1.7856-1.9827-.1913-1.2123,.2981-2.2903,1.0929-2.4076,.7948-.1175,1.59431,.7701,1.7857,1.9826Z" style="fill:#263238;"></path><path d="M219.73379,103.058c.1916,1.2124-.2977,2.2903-1.0924,2.4077-.795,.1174-1.59439-.7701-1.7859-1.9826-.1914-1.2123,.2979-2.2902,1.0928-2.4077,.795-.1172,1.5945,.7702,1.7855,1.9826Z" style="fill:#263238;"></path><path d="M224.34909,100.9184s-2.8876,6.6291-3.7309,9.2761c1.9279,1.2581,4.7239,.0968,4.7239,.0968l-.993-9.3729Z" style="fill:#c15854;"></path><path d="M233.337,95.4483c-.157,.1241-.37551,.163-.57641,.0822-2.333-.9353-3.989,.1225-4.1604,.2371-.2609,.1801-.621,.1164-.8035-.1421-.1823-.2592-.1178-.6157,.1414-.7957,.0918-.0639,2.2905-1.5466,5.253-.358,.2958,.1184,.4392,.4517,.3205,.7441-.0384,.0949-.0994,.1732-.17459,.2324Z" style="fill:#263238;"></path><path d="M216.08619,100.2233c-.0973-.0492-.182-.1268-.2403-.2293-.15789-.2765-.0645-.6292,.2093-.7872,2.7439-1.5839,5.0944-.3797,5.20681-.3393,.28119,.1461,.39389,.4936,.25089,.7766-.1425,.2824-.48389,.394-.7647,.2519-.0958-.0541-1.9186-.9584-4.121,.3131-.1724,.0995-.37519,.0979-.541,.0142Z" style="fill:#263238;"></path><path d="M245.27139,101.7386s-1.8077-20.3416-8.1635-21.1118-7.3275,5.1493-11.48989,5.3073c-4.16241,.1579-4.10171-2.9209-4.10171-2.9209-2.4235,1.7313-4.056,6.6894-5.7472,10.5177,0,0,.8608-11.1728,5.2767-14.5807,8.5936-6.6326,20.6631-5.4153,26.1256-.3667,5.3657,4.9593,5.4268,15.712,5.4268,15.712-.5411,8.2553-1.15119,12.8894-4.3525,18.1856l-2.9743-10.7425Z" style="fill:#263238;"></path><g><path d="M254.05719,101.9561c-.4829,3.3172-2.4613,6.0885-4.7069,7.683-3.3777,2.3986-5.37629-1.3932-5.63929-5.3174-.23641-3.5319,.11089-7.9346,4.07909-8.775,3.9095-.8277,6.8194,2.6173,6.2671,6.4094Z" style="fill:#ebb373;"></path><path d="M245.68896,103.81592c-.1333,0-.24414-.10498-.25-.23926-.04883-1.12158,.19824-2.2417,.71436-3.23877,.34814-.67236,.97363-1.5625,1.979-1.98438,.98096-.4126,2.11914-.21631,2.76758,.479,.09375,.10107,.08838,.25928-.0127,.35352-.10107,.09326-.25977,.08838-.35352-.0127-.49902-.53613-1.42773-.68701-2.20801-.35889-.8667,.36426-1.41846,1.1543-1.72803,1.75293-.47607,.91992-.7041,1.95312-.65869,2.98779,.00586,.1377-.10107,.25439-.23926,.26074h-.01074Z" style="opacity:.2;"></path></g><path d="M242.26889,85.0454c-.9098-2.7668-2.73689-5.3688-5.40689-6.532-1.26211-.5498-2.64571-.7551-4.01741-.8702-3.6495-.3062-1.2313-1.5298-4.8813-1.2344l-3.4079,.8504c-2.5919,1.0317-7.37139,3.7591-9.5769,5.4672-3.5012,2.7117-7.51049,4.7679-11.7601,6.0154-.7195,.2112-1.5751,.5342-1.7045,1.2726-.131,.7473,.5892,1.3511,1.254,1.717,4.2694,2.3506,9.822,2.1572,13.9176-.485-.9272,2.719-6.236,4.0438-4.2779,4.2467,5.9931,1.3036,12.6257-.9752,16.5519-5.687-.0051,.7943-.0051,1.615,.3091,2.3444,.3143,.7295,1.0316,1.3476,1.82341,1.2871,.63989-.0489,1.16969-.5124,1.57869-1.0068,1.4401-1.7405,1.9649-4.0399,2.4461-6.2471,2.5634,2.7064,6.3945,12.8501,9.3434,15.1303,5.05481-6.7455-1.2813-13.5019-2.1913-16.2686Z" style="fill:#263238;"></path><path d="M227.52536,114.3548c1.25952-.71363,2.84729-.80478,4.17106-.205,.18435,.08352,.40345,.05289,.51307-.13453,.09406-.16081,.05084-.42908-.13453-.51307-1.57532-.71375-3.41846-.65037-4.92814,.205-.41993,.23793-.04241,.88611,.37854,.6476h0Z" style="fill:#263238;"></path><path d="M242.33931,75.72003c-.28649-1.24677-.78864-2.45891-1.46331-3.54564-.31022-.49968-1.01912-.7389-1.53921-.4036-.50098,.32299-.73567,1.00432-.4036,1.53921,.29798,.47997,.5577,.98108,.77859,1.50104l-.11341-.26874c.24063,.57515,.43168,1.16822,.57131,1.77586,.13192,.57408,.82293,.96728,1.38388,.78574,.60046-.19432,.92709-.76879,.78574-1.38388h0Z" style="fill:#263238;"></path><path d="M243.48279,78.3064c.00099-.11607,.00405-.23199,.01116-.34787,.00397-.06469-.01092-.31,.03132-.34637-.02083,.01794-.03863,.24481-.00812,.06948,.00883-.05076,.01684-.10164,.02622-.15231,.02111-.11399,.04557-.22735,.07305-.33998,.05499-.22538,.12255-.44757,.20204-.66552,.01767-.04845,.03592-.09666,.05477-.14467,.0639-.1628,.05905-.05935-.00929,.01882,.06508-.07446,.10479-.22656,.14947-.31439,.09939-.19538,.20875-.38564,.32756-.56987,.06287-.0975,.12859-.19315,.19674-.28702,.01841-.02535,.12598-.16816,.02827-.04059-.10595,.13831,.03361-.03924,.05696-.06719,.14042-.16803,.28958-.32869,.44703-.48087,.08336-.08057,.16897-.15878,.25681-.23444,.04882-.04204,.09983-.08155,.14863-.12355,.11421-.0983-.22006,.16452-.01301,.01094,.24362-.1807,.43341-.36876,.517-.67233,.07416-.26929,.04068-.62788-.11341-.86688-.3007-.46641-1.0337-.77855-1.53921-.4036-1.89373,1.40464-3.07363,3.58195-3.09399,5.9582-.00504,.5886,.52106,1.15205,1.125,1.125,.61385-.02749,1.11959-.49423,1.125-1.125h0Z" style="fill:#263238;"></path></g></g></g><g id="freepik--Character_2--inject-34"><g><g><path d="M331.18939,158.466s6.1713,.5435,10.2697,7.6156c4.0983,7.072,8.1166,12.8583,8.1166,12.8583l-13.2565,8.8401-5.1298-29.314Z" style="fill:#263238;"></path><path d="M331.18939,158.466s6.1713,.5435,10.2697,7.6156c4.0983,7.072,8.1166,12.8583,8.1166,12.8583l-13.2565,8.8401-5.1298-29.314Z" style="fill:#fff; opacity:.7;"></path></g><path d="M338.89359,219.5064c-1.4779-.9895-3.3658-1.0645-5.1444-1.0824-13.3048-.1337-26.623,1.0994-39.6769,3.6733l-2.291,1.1293c-1.8079-1.0506-4.2247-.3418-5.7454,1.0932-1.5206,1.4351-2.3502,3.4357-3.1327,5.3745-6.7661,16.7626-13.2068,33.7034-17.7816,51.1916-1.0589,4.0478-1.96759,8.562,.023,12.2421,2.32341,4.2945,7.6608,5.8058,12.468,6.6605,15.70341,2.7919,31.7413,2.9646,47.6906,2.9975,3.8765,.0079,8.02081-.0708,11.2153-2.2672,4.47251-3.0754,5.5334-9.1305,6.05451-14.5334,1.90429-19.741,1.72539-39.6863-.60641-59.3814-.3133-2.6464-.8584-5.6151-3.073-7.0976Z" style="fill:#263238;"></path><g><polygon points="323.837 454.0867 334.87009 455.167 343.024 427.2334 326.23959 425.4064 323.837 454.0867" style="fill:#b97964;"></polygon><g><path d="M336.46809,450.2952h-3.93909c-.89131,0-1.71581,.4509-2.24251,1.17-2.2716,3.1022-3.9787,1.9296-6.44949-.9869-1.57061-.1831-1.99361,1.6195-2.12171,2.104l-2.9447,10.7114c-.2558,.8946,.262,1.827,1.1565,2.0829,.159,.0454,.3241,.0672,.4895,.0647h31.2087c4.96371,0,5.9923-5.0022,3.9478-5.465-9.1942-2.0318-15.7046-4.7374-18.5465-7.412-.5269-.4682,.0143-.8187-.5585-2.2691Z" style="fill:#263238;"></path><path d="M345.01579,453.341c.4145-.2983,.6627-.7754,.6686-1.286,.0349-.2739-.0899-.5436-.3213-.6944-1.2346-.8744-6.1595,1.4274-6.7125,1.6974-.0614,.0221-.1098,.0705-.1319,.1319-.04069,.1136,.01831,.2388,.1319,.2796,1.2103,.2865,2.4472,.446,3.6906,.4758,.9331,.0887,1.8703-.123,2.6746-.6043Zm.0386-1.6075c.1004,.0622,.1517,.18,.1287,.2958-.0207,.3686-.1986,.7105-.4887,.9387-1.1187,.8359-3.8192,.4757-5.2722,.2057,2.0446-.9001,4.9507-1.9159,5.6322-1.4402Z" style="fill:#4096FF;"></path><path d="M338.81779,453.521c1.4788-.6172,4.5778-3.0476,4.4106-4.3335-.0256-.27-.2186-.5916-.8872-.6815-2.7003-.3086-3.8577,4.5392-3.8577,4.745-.0267,.083-.0014,.174,.0643,.2314,.0503,.0149,.1039,.0149,.1543,0l.1157,.0386Zm3.4334-4.6164c.5014,.0514,.5014,.2314,.5014,.2958,.1415,.7843-2.1088,2.8031-3.7163,3.652,.3344-1.1316,1.32471-3.9607,3.0348-3.9607l.1801,.0129Z" style="fill:#4096FF;"></path><path d="M335.85742,455.74023c-.0459,0-.0918-.0127-.13281-.03809-.11719-.07422-.15234-.22852-.0791-.34473,.77148-1.22559,2.08789-2.07422,3.52246-2.27051,.14648-.00879,.26367,.07812,.28223,.21387,.01855,.13672-.07715,.2627-.21387,.28223-1.29004,.17578-2.47461,.93945-3.16699,2.04004-.04785,.07617-.12891,.11719-.21191,.11719Z" style="fill:#4096FF;"></path><path d="M338.30566,457.58203c-.0459,0-.0918-.0127-.13281-.03809-.11719-.07422-.15234-.22852-.0791-.34473,.77148-1.22461,2.08789-2.07324,3.52246-2.26953,.14941-.00977,.26367,.07812,.28223,.21387,.01855,.13672-.07715,.2627-.21387,.28223-1.29004,.17578-2.47363,.93848-3.16699,2.03906-.04785,.07617-.12891,.11719-.21191,.11719Z" style="fill:#4096FF;"></path><path d="M341.35156,459.13184c-.0459,0-.0918-.0127-.13281-.03809-.11719-.07422-.15234-.22852-.0791-.34473,.77148-1.22559,2.08887-2.07422,3.52246-2.26953,.14941-.00879,.2627,.07812,.28223,.21387,.01855,.1377-.07715,.26367-.21387,.28223-1.29004,.1748-2.47363,.9375-3.16699,2.03906-.04785,.07617-.12891,.11719-.21191,.11719Z" style="fill:#4096FF;"></path></g><polygon points="338.71449 441.9968 337.71459 445.4225 324.73 443.428 324.96519 440.6195 338.71449 441.9968" style="opacity:.3;"></polygon></g><g><polygon points="285.60429 454.9723 296.63739 456.0526 304.79149 428.119 288.007 426.292 285.60429 454.9723" style="fill:#b97964;"></polygon><g><path d="M298.23539,451.1808h-3.939c-.8915,0-1.7159,.4508-2.2426,1.17-2.2716,3.1023-3.9786,1.9297-6.4495-.9869-1.5706-.1831-1.9934,1.6195-2.1217,2.1039l-2.9447,10.7116c-.2557,.8944,.262,1.8269,1.1565,2.0827,.1591,.0455,.324,.0674,.4894,.0648h31.2089c4.9635,0,5.9922-5.0021,3.9476-5.4651-9.194-2.0317-15.7045-4.7373-18.54629-7.4119-.52711-.4683,.01419-.8186-.55861-2.2691Z" style="fill:#263238;"></path><path d="M306.78319,454.2266c.4144-.2982,.6626-.7755,.6687-1.2861,.0346-.2738-.0901-.5436-.3216-.6943-1.2344-.8744-6.1594,1.4274-6.7125,1.6974-.0614,.022-.1097,.0704-.13179,.132-.04081,.1136,.01819,.2388,.13179,.2795,1.2104,.2866,2.4474,.4459,3.6906,.4758,.9333,.0887,1.8704-.123,2.6748-.6043Zm.0385-1.6074c.10031,.062,.1517,.18,.1287,.2957-.0207,.3685-.1986,.7104-.4887,.9387-1.1188,.8359-3.8191,.4758-5.2723,.2057,2.0447-.9001,4.9508-1.9159,5.6323-1.4401Z" style="fill:#4096FF;"></path><path d="M300.58519,454.4066c1.4787-.6172,4.57781-3.0476,4.4106-4.3335-.02579-.27-.2187-.5915-.8873-.6815-2.7004-.3086-3.8577,4.5392-3.8577,4.745-.0266,.083-.0014,.174,.0643,.2314,.0503,.0149,.10391,.0149,.1542,0l.1159,.0386Zm3.4333-4.6165c.50151,.0515,.50151,.2315,.50151,.2958,.14139,.7843-2.10891,2.8034-3.71631,3.652,.33431-1.1316,1.3245-3.9606,3.0347-3.9606l.1801,.0128Z" style="fill:#4096FF;"></path><path d="M297.625,456.625c-.0459,0-.0918-.0127-.13281-.03809-.11719-.07422-.15234-.22852-.0791-.34473,.77148-1.22461,2.08789-2.07324,3.52246-2.26953,.14551-.0127,.2627,.07812,.28223,.21387,.01855,.13672-.07715,.2627-.21387,.28223-1.29004,.17578-2.47363,.93848-3.16699,2.03906-.04785,.07617-.12891,.11719-.21191,.11719Z" style="fill:#4096FF;"></path><path d="M300.07324,458.46777c-.0459,0-.0918-.0127-.13281-.03809-.11719-.07422-.15234-.22852-.0791-.34473,.77246-1.22559,2.08887-2.07422,3.52246-2.26953,.14844-.01367,.26367,.07812,.28223,.21387,.01855,.1377-.07715,.26367-.21387,.28223-1.28906,.1748-2.47363,.9375-3.16699,2.03906-.04785,.07617-.12891,.11719-.21191,.11719Z" style="fill:#4096FF;"></path><path d="M303.11914,460.01758c-.0459,0-.0918-.0127-.13281-.03809-.11719-.07422-.15234-.22852-.0791-.34473,.77148-1.22559,2.08789-2.07422,3.52246-2.27051,.14941-.01172,.26367,.07812,.28223,.21387,.01855,.13672-.07715,.2627-.21387,.28223-1.29004,.17578-2.47461,.93945-3.16699,2.04004-.04785,.07617-.12891,.11719-.21191,.11719Z" style="fill:#4096FF;"></path></g><polyline points="286.49729 444.3137 286.73249 441.5051 300.48179 442.8824 299.48189 446.3081" style="opacity:.3;"></polyline></g><path d="M344.85239,242.0523s-8.1021,8.5545-23.9813,8.7016c-15.87909,.147-33.6927-9.103-33.6927-9.103l1.9939-3.4144,45.7261,4.9818,8.7509-4.9818,1.2031,3.8158Z" style="isolation:isolate; opacity:.2;"></path><g><g><path d="M346.24209,246.9594s9.6502,39.5311,14.0083,74.705c1.3284,10.7205,1.5815,25.0566-.7652,35.611l-17.6255,87.6235-22.1795-2.2217c3.4856-37.7902,8.34281-84.3993,9.7342-104.23l-25.4952-79.3437,42.3229-12.1441Z" style="fill:#4096FF;"></path><path d="M317.59289,301.7522c-.0733,.3675,10.9848-44.8276,10.9848-44.8276,0,0,2.9699,36.8886-8.1418,54.4953l-2.843-9.6677Z" style="isolation:isolate; opacity:.2;"></path><path d="M285.24809,349.4869c.2086-2.2325,.4171-6.7387,.61891-12.6721-.03011-.0029-.06391-.0054-.09371-.0082-.3075-7.7701-3.7264-43.5458-4.3221-66.5755-.0599-14.712,2.3336-24.9917,5.4172-30.2799,.1591-.2715,.305-.5185,.4382-.7394,.5156-.8542,.8345-1.329,.8345-1.329,.7313,.0828,1.4564,.1539,2.1767,.2139,.2695,.0228,.5375,.0441,.8035,.064,27.0112,1.9951,46.8243-8.6575,46.8243-8.6575,3.2143,5.6521,4.7726,4.4805,8.2965,17.4562-2.3472,3.3825-9.5508,23.2388-23.0449,27.6753l-1.5697,18.374c-.6029,11.3427-1.8241,22.5516-2.7874,32.6268l-.9415,11.02c-.0504,.7208-.0984,1.4356-.1408,2.1366-.3815,6.3134-15.75279,109.2656-15.75279,109.2656l-20.55491-.3s.9715-68.0395,3.798-98.2708Z" style="fill:#4096FF;"></path></g><polygon points="343.00619 439.1992 341.85969 444.8989 319.68019 442.6772 320.25609 436.4868 343.00619 439.1992" style="isolation:isolate; opacity:.2;"></polygon><polygon points="302.005 448.0577 302.87169 442.2419 281.45009 441.9851 281.45009 447.7577 302.005 448.0577" style="isolation:isolate; opacity:.2;"></polygon></g><g><path d="M282.73919,187.8655l-6.8974-23.5188c4.3633-6.5118,25.9523-11.5156,25.9523-11.5156l14.2234,.7777s5.4666,1.2197,10.147,2.746c6.2483,2.0375,9.6271,3.6766,11.1168,7.1435,0,0,2.6071,7.6816,1.0396,23.511-.4311,4.3528-1.4164,27.3245-.2014,34.8002l8.8361,17.2878c-25.98859,20.2392-59.2598,.0087-59.2598,.0087,1.16821-3.5738,3.7355-11.4892,4.2636-14.9818-.38139-4.4556-1.632-7.3818-3.5193-15.1838-.3642-1.5061-5.0684-19.6117-5.7009-21.0749Z" style="fill:#263238;"></path><path d="M282.73919,187.8655l-6.8974-23.5188c4.3633-6.5118,25.9523-11.5156,25.9523-11.5156l14.2234,.7777s5.4666,1.2197,10.147,2.746c6.2483,2.0375,9.6271,3.6766,11.1168,7.1435,0,0,2.6071,7.6816,1.0396,23.511-.4311,4.3528-1.4164,27.3245-.2014,34.8002l8.8361,17.2878c-25.98859,20.2392-59.2598,.0087-59.2598,.0087,1.16821-3.5738,3.7355-11.4892,4.2636-14.9818-.38139-4.4556-1.632-7.3818-3.5193-15.1838-.3642-1.5061-5.0684-19.6117-5.7009-21.0749Z" style="fill:#fff; opacity:.7;"></path><polygon points="285.43879 196.2925 286.70649 196.2925 290.52549 185.0149 288.83879 210.5562 285.31929 197.1871 285.43879 196.2925" style="isolation:isolate; opacity:.2;"></polygon></g><g><path d="M312.728,228.4292c-6.43651-4.4185-14.444-6.4958-22.21671-5.7631l-3.8048,9.9915c10.6418,9.5946,23.6559,10.8818,37.9773,10.4353,2.0161-7.4109-5.5194-10.2452-11.95579-14.6637Z" style="fill:#263238;"></path><path d="M342.672,221.9962c-1.05061-1.9649-3.19281-3.5279-5.39451-3.1871-1.6398,.2539-2.9499,1.4649-4.0824,2.6776-4.4976,4.8156-7.9617,10.5919-10.0916,16.8276l.83851,4.7786c1.48079-.6079,2.96169-1.216,4.44229-1.8239,4.1975-1.7236,8.5264-3.5349,11.6628-6.814,3.1364-3.2793,4.7644-8.4572,2.62491-12.4588Z" style="fill:#263238;"></path><path d="M331.03049,239.1231c0,3.3213-2.6924,6.0137-6.0137,6.0137s-6.01379-2.6924-6.01379-6.0137,2.69239-6.0137,6.01379-6.0137,6.0137,2.6925,6.0137,6.0137Z" style="fill:#263238;"></path><path d="M327.62629,262.7451c-.4978-7.1401-.9957-14.2804-1.4936-21.4206l-2.7961,1.8162c-8.7565,12.7939-12.5939,28.8673-10.561,44.2369,3.7337,.6446,7.5361,.8895,11.3217,.7291-1.0668-2.2539-2.1337-4.5079-3.2005-6.7618,3.3009-1.2885,5.4808-4.588,6.3487-8.0235,.868-3.4356,.6273-7.0414,.3808-10.5763Z" style="fill:#263238;"></path><path d="M339.77689,270.2824c1.597-2.178,1.894-5.0517,1.72411-7.7471-.54011-8.5693-5.49871-16.7411-12.84991-21.1775l-1.1954-.9388c4.2699,12.8811,3.4394,26.8207,2.5617,40.3626,2.8698-.581,5.7398-1.162,8.6097-1.743-.8849-1.7762-1.7886-3.8157-1.0885-5.6724,.4503-1.1943,1.4836-2.0546,2.2383-3.0838Z" style="fill:#263238;"></path></g><g><g><path d="M317.21859,111.6935s2.3582,26.1349,3.6606,33.6433c4.102,4.9084,20.3266,1.363,13.976-15.9145-3.3504-9.1151-3.6385-20.6414-9.9674-25.3361-8.8901-6.5948-7.6692,7.6073-7.6692,7.6073Z" style="fill:#263238;"></path><g><g><path d="M315.02719,154.8941c-1.488-1.486-2.1595-3.0301-1.8778-5.1927,.1961-1.6625,.73261-3.3905,1.37161-5.0732l-2.21971-2.4127-11.5456-10.8366c.5507,7.4958,1.88831,19.5169-3.8306,23.804l18.1021,14.6305v-14.9193Z" style="fill:#b97964;"></path><path d="M313.08829,150.2021c-3.1292-1.7074-6.6044-4.7393-6.33229-8.3578,.12459-1.5237,.39959-2.9735,.72969-3.9082l6.549,8.0504c-.4625,1.3461-.6456,2.1923-.9464,4.2156Z" style="opacity:.2;"></path><path d="M297.72779,119.4343c1.4634,11.4058,1.8415,16.2514,7.9646,22.0377,9.2101,8.7037,22.7659,5.1719,24.707-6.2567,1.7474-10.2863-.9395-27.2103-12.3485-31.6125-11.2404-4.3366-21.7865,4.4256-20.3231,15.8315Z" style="fill:#b97964;"></path><path d="M322.74519,145.2224c-9.03-4.1127-12.5701-2.9963-11.9081-.7176,.302,1.0394,4.3728,1.6845,4.3728,1.6845,0,0,.9143,.0856,1.3456,.117,.3889,.0283,.6377,.2451,.6192,.2643-.3106,.3232,5.2667-.9482,5.5705-1.3482Z" style="opacity:.2;"></path><path d="M328.38369,140.4921s-.4345-.5569-1.1692-.2976-2.4644,1.6268-2.4747,3.9573c0,0,.928-.5868,1.9671-1.5658,.6614-.6233,1.6768-2.0939,1.6768-2.0939Z" style="opacity:.3;"></path><path d="M313.24829,123.4547c.0091,1.0737,.62571,1.9854,1.3774,2.0365,.75131,.0512,1.3531-.7775,1.344-1.8511s-.6258-1.9855-1.3773-2.0366c-.7512-.0514-1.353,.7776-1.3441,1.8512Z" style="fill:#263238;"></path><path d="M324.89089,122.4545c-.0505,1.0391,.5122,1.9593,1.257,2.0549,.7449,.0955,1.39-.6695,1.4406-1.7091,.05051-1.039-.5121-1.9592-1.257-2.0549-.7449-.0955-1.3896,.6696-1.4406,1.7091Z" style="fill:#263238;"></path><path d="M311.53409,121.6908c.1464,.0095,.2924-.0398,.4007-.1493,1.6871-1.713,3.6977-1.2317,3.7209-1.2261,.298,.0721,.5878-.108,.6416-.4113,.0525-.3028-.1488-.6091-.4507-.6854-.1053-.0258-2.6287-.6324-4.722,1.4943-.2085,.2119-.1964,.5695,.0268,.7985,.108,.1099,.2455,.1705,.3827,.1793Z" style="fill:#263238;"></path><path d="M329.55339,116.1378c.1324-.0437,.2454-.1343,.3087-.2637,.13091-.2671,.0027-.5965-.285-.7355-2.8884-1.3935-5.13909-.1852-5.23409-.1317-.26721,.1476-.34621,.4795-.17561,.7418,.1694,.2619,.5233,.3547,.7905,.2087,.0876-.0486,1.848-.9605,4.1445,.148,.1487,.0716,.3111,.0788,.451,.0324Z" style="fill:#263238;"></path><path d="M306.741,100.7872c-3.92951,.6462-6.40311,1.2096-9.49931,3.1467-3.0963,1.9372-6.4072,6.6535-8.2129,10.2503-2.5731,5.1255-2.7619,11.4245-2.879,17.4131-.0771,3.9383-.0647,8.2231,1.9377,11.3372,1.345,2.0918,3.4348,3.3418,5.5784,3.9169,2.1436,.575,4.3639,.5383,6.5593,.4737,1.8116-.0532,4.0169-.4363,4.6882-2.4644,1.05561-3.1893-2.9263-6.1491-2.392-9.5218" style="fill:#263238;"></path><path d="M294.60369,128.8866c1.4367,2.2979,3.6866,3.692,5.7191,4.1241,3.0564,.6498,4.444-4.2771,3.3001-7.2746-1.02989-2.6981-4.0722-4.3984-6.9985-3.6958-2.883,.6923-3.6636,4.2189-2.0207,6.8463Z" style="fill:#b97964;"></path><path d="M320.87919,121.732s1.94581,4.2187,4.0624,6.8158c.3699,.454,.1763,1.1431-.3654,1.365-1.3943,.5715-3.0651,.1607-3.0651,.1607l-.6319-8.3415Z" style="fill:#a24e3f;"></path></g><path d="M314.36419,121.5667l2.6547-.4968s-1.5278,1.8904-2.6547,.4968Z" style="fill:#263238;"></path><path d="M326.05979,120.7436l2.6794-.3379s-1.6376,1.796-2.6794,.3379Z" style="fill:#263238;"></path></g><path d="M294.63769,113.1843c-1.5524,2.2426,1.5384,8.7583,1.5384,8.7583,0,0,5.4888-1.6324,5.7885,6.6361,2.0248,.3353,4.2972-7.3852,3.9661-15.1455-.4056-4.3848-8.5521-4.2083-11.293-.2489Z" style="fill:#263238;"></path><path d="M299.63574,130.13916c-.01855,0-.03809-.00195-.05762-.00684-1.83984-.4375-2.68262-1.40625-3.06543-2.14258-.44824-.86133-.41211-1.66113-.22949-2.12256,.36914-.92871,1.51074-1.63428,2.61816-1.21143,.12891,.04932,.19336,.19385,.14355,.32275s-.19824,.19092-.32324,.14404c-.81836-.31201-1.69824,.2373-1.97363,.92969-.13574,.3418-.16309,.99414,.20801,1.70654,.33496,.64355,1.08203,1.49365,2.7373,1.88721,.13477,.03174,.21777,.1665,.18555,.30078-.02734,.11523-.12988,.19238-.24316,.19238Z" style="opacity:.2;"></path></g><path d="M326.99539,106.8193c-2.421-5.0329-12.2839-9.7091-23.6246-4.8494-10.2456,4.3752-14.6,19.4111-7.1947,19.9727,7.4053,.5615,19.3328-8.4045,19.3328-8.4045l11.4865-6.7188Z" style="fill:#263238;"></path></g><g><path d="M341.85109,196.3361l11.5363,.2662,2.574,5.8662-5.9316,7.5126s-1.4184-.0855-.9522-2.0655c.36141-1.5347,1.1928-2.7333,1.1928-2.7333l-7.879,2.3698c-1.4936,.4493-3.0096-.6316-3.0718-2.1901l-.3617-9.0695,2.8932,.0436Z" style="fill:#b97964;"></path><path d="M274.35489,175.271s-.4241,5.673,1.90611,12.8275c2.33029,7.1545,8.10569,26.2403,14.95579,31.4957,6.85021,5.2554,24.2121-2.5997,34.6304-7.1487,10.3152-4.504,15.8157-6.6611,16.0039-6.6919l-2.8932-9.4611-37.8456,5.5158-16.2357-34.563s-11.6578-.0972-10.5217,8.0257Z" style="fill:#b97964;"></path><path d="M335.16309,195.5769s2.69891,7.0434,6.0865,8.2097c3.3877,1.1663,12.0009,1.4971,12.7553-6.6096l-18.8418-1.6001Z" style="opacity:.2;"></path></g><g><path d="M275.84179,164.3467c-7.1039,6.8669,.841,33.4389,.841,33.4389l22.6834-5.9756s-5.3896-20.018-10.8101-25.0641c-4.59209-4.2525-8.81409-6.2904-12.7143-2.3992Z" style="fill:#263238;"></path><g style="opacity:.7;"><path d="M275.84179,164.3467c-7.1039,6.8669,.841,33.4389,.841,33.4389l22.6834-5.9756s-5.3896-20.018-10.8101-25.0641c-4.59209-4.2525-8.81409-6.2904-12.7143-2.3992Z" style="fill:#fff;"></path></g></g><path d="M319.62669,133.8816c.88022-.02634,1.76086,.00425,2.63662,.09774,.43099,.04601,.85972,.10867,1.28622,.1859,.2528,.04578,.76857,.04927,.92226,.29582,.25479,.40873,.90392,.03264,.6476-.37854-.21513-.34511-.54434-.47573-.927-.5549-.50712-.10491-1.0187-.18605-1.5323-.25174-1.00594-.12866-2.01988-.17462-3.0334-.14429-.48154,.01441-.48358,.76447,0,.75h0Z" style="fill:#263238;"></path><g><path d="M313.08939,150.803c.00061,.018-1.1929,.3881-.9067,1.676,.28631,1.288,.736,1.4515,.736,1.4515,0,0-1.3145,1.4106,.1707,2.9643,0,0,.831,.8586,2.4461,.6337,0,0,3.4753,5.8264,6.29651,6.0513l.85859,.1635,8.0921,16.9552-8.5716-30.4964-9.1217,.6009Z" style="opacity:.2;"></path><path d="M330.52689,155.9928s-.2003-8.273-.83889-9.6413c-.63851-1.3683-1.41391-1.7788-1.41391-3.284,0-1.5051,.2737-2.691-.5929-2.5086-.8666,.1825-1.6876,1.7788-1.9157,2.9647-.228,1.1859,.2737,4.3331,.2737,4.3331,0,0-6.5224-3.9226-9.12219-4.5155-2.16651-.4941-4.74481-.8616-5.57041,.1383-.3513,.4254-.15959,1.0902,.3211,1.361,.3885,.2188,1.033,.477,2.1022,.7356,3.60211,.8711,4.78911,1.5508,4.78911,1.5508,0,0-3.46641-.1825-4.37861,.4561-.9122,.6385-.8666,1.0892-.6386,1.8217,.2281,.7325,.821,1.2342,.821,1.2342,0,0-1.1402-.3649-1.5507,1.0947-.4105,1.4595,.7297,1.9612,.7297,1.9612,0,0-1.0946,1.0491-.4561,2.3718,.6386,1.3227,2.5086,.8666,2.5086,.8666,0,0,4.8804,5.9294,6.7504,6.0662,1.87,.1369,4.2874-1.1859,4.105-1.1859-.1825,0,4.333-5.2452,4.333-5.2452l-.2558-.5755Z" style="fill:#b97964;"></path><path d="M322.95389,162.6201s9.1352,27.6705,12.596,33.6724c3.4608,6.002,9.2885,7.9468,14.9266,5.4154,1.3477-.6051,2.4214-2.1108,3.2642-3.9223,2.5465-5.4735,.7529-9.0402-2.1021-14.3593l-2.3284-4.338-4.7343,3.1034-14.3443-26.7288-7.2777,7.1572Z" style="fill:#b97964;"></path></g></g></g></svg>
